<?xml version="1.0" standalone="no"?>
<!DOCTYPE svg PUBLIC "-//W3C//DTD SVG 20010904//EN"
 "http://www.w3.org/TR/2001/REC-SVG-20010904/DTD/svg10.dtd">
<svg version="1.0" xmlns="http://www.w3.org/2000/svg"
 width="250.000000pt" height="250.000000pt" viewBox="0 0 250.000000 250.000000"
 preserveAspectRatio="xMidYMid meet">
<metadata>
Created by potrace 1.10, written by Peter Selinger 2001-2011
</metadata>
<g transform="translate(0.000000,250.000000) scale(0.100000,-0.100000)"
fill="#000000" stroke="none">
<path d="M1098 2260 c-408 -65 -730 -354 -835 -749 -23 -83 -26 -116 -26 -251
0 -135 3 -168 26 -251 95 -358 369 -631 727 -727 130 -34 351 -37 480 -5 190
48 343 134 481 272 137 136 218 277 266 461 35 132 38 353 6 480 -93 369 -371
654 -729 746 -111 28 -298 39 -396 24z m397 -64 c284 -84 499 -264 621 -521
71 -151 89 -233 88 -420 -1 -144 -4 -169 -28 -250 -87 -290 -266 -502 -530
-625 -143 -67 -227 -84 -411 -84 -144 1 -169 3 -250 28 -290 87 -505 269 -625
529 -68 149 -85 229 -84 412 0 144 3 169 28 250 53 178 130 310 251 430 121
122 275 211 440 253 114 30 125 31 275 27 110 -3 152 -8 225 -29z"/>
<path d="M1112 2079 c-83 -14 -200 -56 -282 -102 -101 -57 -250 -205 -307
-307 -193 -345 -131 -764 154 -1030 274 -256 662 -302 993 -117 96 54 241 196
298 292 158 268 162 582 9 855 -57 101 -205 250 -307 307 -171 96 -373 133
-558 102z m353 -58 c273 -80 487 -298 561 -571 26 -92 25 -311 0 -400 -66
-231 -222 -420 -430 -520 -126 -60 -190 -74 -346 -74 -155 0 -216 13 -345 75
-211 101 -370 292 -431 519 -26 92 -25 311 0 400 87 306 334 535 638 590 83
14 272 4 353 -19z"/>
<path d="M1150 1883 c-127 -21 -261 -92 -356 -188 -248 -254 -243 -652 11
-901 252 -246 647 -244 895 6 122 123 190 283 190 450 0 350 -297 644 -645
638 -38 0 -81 -3 -95 -5z m244 -53 c117 -30 204 -80 286 -166 230 -243 226
-600 -9 -835 -154 -154 -359 -212 -563 -160 -109 28 -189 72 -271 150 -194
185 -240 466 -116 712 41 82 161 203 246 247 133 70 286 88 427 52z"/>
<path d="M1155 1581 c-22 -10 -54 -34 -72 -52 -59 -63 -63 -84 -63 -342 0
-255 2 -266 55 -253 l25 6 0 138 c-1 147 -16 167 -22 28 -2 -48 -8 -81 -15
-83 -13 -5 -18 263 -5 311 l8 29 13 -44 c7 -24 19 -54 28 -67 8 -13 12 -30 9
-37 -7 -20 58 -73 99 -81 145 -27 261 62 272 209 9 106 -49 204 -143 243 -47
20 -141 17 -189 -5z m-21 -63 c-10 -13 -22 -25 -25 -28 -3 -3 -9 -14 -12 -24
-4 -10 -10 -16 -14 -13 -6 7 16 45 42 71 24 24 31 19 9 -6z m192 -9 c93 -45
108 -190 28 -265 -125 -118 -315 38 -235 194 43 85 121 112 207 71z m134 -124
c0 -99 -56 -192 -120 -201 l-35 -4 31 14 c37 17 84 65 84 86 0 9 5 21 10 26 6
6 11 36 12 66 2 60 18 71 18 13z"/>
</g>
</svg>
